ply
format ascii 1.0
element vertex 21
property float32 x
property float32 y
property float32 z
element face 20
property list uint8 int32 vertex_indices
end_header
0.0 0.0 0.0
1.0 0.0 0.0
0.951 0.309 0.0
0.809 0.587 0.0
0.587 0.809 0.0
0.309 0.951 0.0
0.0 1.0 0.0
-0.309 0.951 0.0
-0.587 0.809 0.0
-0.809 0.587 0.0
-0.951 0.309 0.0
-1.0 0.0 0.0
-0.951 -0.309 0.0
-0.809 -0.587 0.0
-0.587 -0.809 0.0
-0.309 -0.951 0.0
0.0 -1.0 0.0
0.309 -0.951 0.0
0.587 -0.809 0.0
0.809 -0.587 0.
0.951 -0.309 0.0
3 0 1 2
3 0 2 3
3 0 3 4
3 0 4 5
3 0 5 6
3 0 6 7
3 0 7 8
3 0 8 9
3 0 9 10
3 0 10 11
3 0 11 12
3 0 12 13
3 0 13 14
3 0 14 15
3 0 15 16
3 0 16 17
3 0 17 18
3 0 18 19
3 0 19 20
3 0 20 1
