ply
format ascii 1.0
element vertex 26
property float32 x
property float32 y
property float32 z
element face 12
property list uint8 int32 vertex_indices
end_header
0.500000 -0.500000 -0.500000 
-0.500000 -0.500000 -0.500000 
-0.500000 0.500000 -0.500000
-0.500000 0.500000 0.500000 
-0.500000 -0.500000 0.500000 
0.500000 -0.500000 0.500000 
0.500000 0.500000 0.500000 
0.500000 -0.500000 0.500000 
0.500000 -0.500000 -0.500000 
0.500000 -0.500000 0.500000 
-0.500000 -0.500000 0.500000 
-0.500000 -0.500000 -0.500000 
-0.500000 -0.500000 -0.500000 
-0.500000 -0.500000 0.500000 
-0.500000 0.500000 0.500000 
0.500000 0.500000 -0.500000 
-0.500000 0.500000 -0.500000 
-0.500000 0.500000 0.500000 
0.500000 0.500000 -0.500000 
0.500000 0.500000 0.500000 
0.500000 0.500000 -0.500000 
0.500000 0.500000 0.500000 
0.500000 -0.500000 -0.500000 
0.500000 -0.500000 -0.500000 
-0.500000 0.500000 -0.500000 
0.500000 0.500000 0.500000 
3 0 1 2
3 3 4 5
3 6 7 8
3 9 10 11
3 12 13 14
3 15 16 17
3 18 0 2
3 19 3 5
3 20 21 22
3 23 9 11
3 24 12 14
3 25 15 17